<?xml version="1.0" encoding="UTF-8" standalone="no"?><svg alt="Logo Netwerk Digitaal Erfgoed" aria-hidden="true" version="1.1" x="0px" y="0px" viewBox="43.167 125.167 157.333 150" enable-background="new 43.167 125.167 157.333 150" xml:space="preserve" id="svg29" xmlns:inkscape="http://www.inkscape.org/namespaces/inkscape" xmlns:sodipodi="http://sodipodi.sourceforge.net/DTD/sodipodi-0.dtd" xmlns="http://www.w3.org/2000/svg" xmlns:svg="http://www.w3.org/2000/svg"><defs id="defs29" /><g id="g29" style="fill:#2e8555"><rect x="53.107" y="197.661" width="138.77" height="4.763" id="rect1" style="fill:#2e8555" /><rect x="148.123" y="188.302" transform="matrix(-0.9808 0.1951 -0.1951 -0.9808 373.0271 344.6246)" width="42.837" height="4.762" id="rect2" style="fill:#2e8555" /><rect x="145.396" y="179.305" transform="matrix(-0.9239 0.3827 -0.3827 -0.9239 390.4592 285.704)" width="42.837" height="4.762" id="rect3" style="fill:#2e8555" /><rect x="140.965" y="171.012" transform="matrix(-0.8315 0.5556 -0.5556 -0.8315 393.7336 227.3473)" width="42.838" height="4.761" id="rect4" style="fill:#2e8555" /><rect x="134.994" y="163.743" transform="matrix(-0.7071 0.7071 -0.7071 -0.7071 384.477 172.9961)" width="42.833" height="4.762" id="rect5" style="fill:#2e8555" /><rect x="127.729" y="157.775" transform="matrix(-0.5556 0.8315 -0.8315 -0.5556 365.1757 125.1258)" width="42.837" height="4.762" id="rect6" style="fill:#2e8555" /><rect x="119.434" y="153.343" transform="matrix(-0.3827 0.9239 -0.9239 -0.3827 338.6234 85.1853)" width="42.836" height="4.762" id="rect7" style="fill:#2e8555" /><rect x="110.427" y="150.613" transform="matrix(-0.195 0.9808 -0.9808 -0.195 307.6125 53.5162)" width="42.835" height="4.761" id="rect8" style="fill:#2e8555" /><rect x="120.111" y="130.657" width="4.763" height="42.833" id="rect9" style="fill:#2e8555" /><rect x="110.757" y="131.578" transform="matrix(-0.9808 0.1951 -0.1951 -0.9808 253.9574 280.9728)" width="4.761" height="42.836" id="rect10" style="fill:#2e8555" /><rect x="101.76" y="134.307" transform="matrix(-0.9238 0.3828 -0.3828 -0.9238 259.9637 259.7166)" width="4.761" height="42.836" id="rect11" style="fill:#2e8555" /><rect x="93.468" y="138.739" transform="matrix(-0.8315 0.5555 -0.5555 -0.8315 264.5174 240.0869)" width="4.762" height="42.837" id="rect12" style="fill:#2e8555" /><rect x="86.192" y="144.706" transform="matrix(-0.7071 0.7071 -0.7071 -0.7071 268.6692 220.9577)" width="4.762" height="42.832" id="rect13" style="fill:#2e8555" /><rect x="80.234" y="151.975" transform="matrix(-0.5556 0.8315 -0.8315 -0.5556 272.6861 201.0299)" width="4.762" height="42.837" id="rect14" style="fill:#2e8555" /><rect x="75.798" y="160.268" transform="matrix(-0.3826 0.9239 -0.9239 -0.3826 275.9516 178.9766)" width="4.762" height="42.835" id="rect15" style="fill:#2e8555" /><rect x="73.069" y="169.267" transform="matrix(-0.1952 0.9808 -0.9808 -0.1952 277.1957 153.9178)" width="4.762" height="42.836" id="rect16" style="fill:#2e8555" /><rect x="54.033" y="207.022" transform="matrix(-0.9808 0.1951 -0.1951 -0.9808 190.3065 400.0599)" width="42.836" height="4.762" id="rect17" style="fill:#2e8555" /><rect x="56.763" y="216.018" transform="matrix(-0.9239 0.3827 -0.3827 -0.9239 233.9893 390.2534)" width="42.835" height="4.762" id="rect18" style="fill:#2e8555" /><rect class="line-e fill-nde_blue-500 hide-desktop" x="61.199" y="224.313" transform="matrix(-0.8315 0.5556 -0.5556 -0.8315 277.2536 369.2841)" width="42.837" height="4.762" id="rect19" style="fill:#2e8555" /><rect x="67.157" y="231.58" transform="matrix(-0.7071 0.7071 -0.7071 -0.7071 316.6397 336.7634)" width="42.83" height="4.762" id="rect20" style="fill:#2e8555" /><rect x="74.433" y="237.548" transform="matrix(-0.5556 0.8315 -0.8315 -0.5556 348.5989 293.5263)" width="42.837" height="4.763" id="rect21" style="fill:#2e8555" /><rect x="82.724" y="241.979" transform="matrix(-0.3827 0.9239 -0.9239 -0.3827 369.7544 241.661)" width="42.835" height="4.763" id="rect22" style="fill:#2e8555" /><rect x="91.713" y="244.7" transform="matrix(-0.195 0.9808 -0.9808 -0.195 377.5286 184.2999)" width="42.836" height="4.763" id="rect23" style="fill:#2e8555" /><rect x="120.111" y="226.595" width="4.763" height="42.833" id="rect24" style="fill:#2e8555" /><rect x="129.472" y="225.674" transform="matrix(-0.9808 0.1951 -0.1951 -0.9808 309.3681 463.7198)" width="4.761" height="42.836" id="rect25" style="fill:#2e8555" /><rect x="138.474" y="222.945" transform="matrix(-0.9239 0.3828 -0.3828 -0.9239 364.512 416.205)" width="4.761" height="42.835" id="rect26" style="fill:#2e8555" /><rect x="146.769" y="218.511" transform="matrix(-0.8314 0.5556 -0.5556 -0.8314 406.4734 356.5358)" width="4.763" height="42.837" id="rect27" style="fill:#2e8555" /><rect x="154.029" y="212.548" transform="matrix(-0.7071 0.7071 -0.7071 -0.7071 432.4463 288.8026)" width="4.762" height="42.832" id="rect28" style="fill:#2e8555" /><rect x="160.006" y="205.273" transform="matrix(-0.5555 0.8315 -0.8315 -0.5555 441.0911 217.5942)" width="4.762" height="42.838" id="rect29" style="fill:#2e8555" /></g></svg>
